<svg width="128" height="128" viewBox="0 0 128 128" fill="none" xmlns="http://www.w3.org/2000/svg">
  <rect width="128" height="128" rx="26" fill="#0B1020"/>
  <path d="M29 31C29 24.9249 33.9249 20 40 20H88C94.0751 20 99 24.9249 99 31V97C99 103.075 94.0751 108 88 108H40C33.9249 108 29 103.075 29 97V31Z" fill="#111827"/>
  <path d="M32 32C32 27.0294 36.0294 23 41 23H87C91.9706 23 96 27.0294 96 32V96C96 100.971 91.9706 105 87 105H41C36.0294 105 32 100.971 32 96V32Z" stroke="#E5E7EB" stroke-width="6"/>
  <rect x="43" y="33" width="42" height="54" rx="7" fill="#0F172A"/>
  <path d="M52 50L75 64L52 78V50Z" fill="#38BDF8"/>
  <path d="M88 39C94.6274 45.6274 98 53.9608 98 64C98 74.0392 94.6274 82.3726 88 89" stroke="#34D399" stroke-width="6" stroke-linecap="round"/>
  <path d="M100 27C110 37 115 49.3333 115 64C115 78.6667 110 91 100 101" stroke="#38BDF8" stroke-width="6" stroke-linecap="round"/>
  <circle cx="64" cy="96" r="4" fill="#E5E7EB"/>
</svg>
